# xmcd
#
# Track frame offsets:
# 183
# 26530
# 60798
# 81780
# 100838
# 122650
# 142185
# 153193
# 176253
# 195673
# 212620
#
# Disc length: 3236 seconds
#
#
# Revision: 4
# Processed by: cddbd v1.5.1PL0 Copyright (c) Steve Scherf et al.
# Submitted via: FreeRIP 2.51 
#
DISCID=850ca20b
DTITLE=Various Artist - Best of the Blues - Live at "Newport In New York"
DYEAR=1989
DGENRE=Blues
TTITLE0="Big Mama" Thornton - Little Red Rooster
TTITLE1="Big Mama" Thornton - Ball and Chain
TTITLE2=Jay McShann - Confessin' the Blues
TTITLE3=Eddie "Cleanhead" Vinson - They call me Mr. Cleanhead
TTITLE4=Eddie "Cleanhead" Vinson - Hold it Right There
TTITLE5=Eddie "Cleanhead" Vinson - Kidney Stew
TTITLE6=Arthur "Big Boy" Crudup - That's Alright Now Mama
TTITLE7=Muddy Waters - Long Distance Call
TTITLE8=Muddy Waters - Where's My Woman Been
TTITLE9=Muddy Waters - Got My Mojo Workin'
TTITLE10=B.B. King - Outside Help
EXTD=
EXTT0=
EXTT1=
EXTT2=
EXTT3=
EXTT4=
EXTT5=
EXTT6=
EXTT7=
EXTT8=
EXTT9=
EXTT10=
PLAYORDER=
